<svg width="22" height="21" viewBox="0 0 22 21" fill="none" xmlns="http://www.w3.org/2000/svg">
<path fill-rule="evenodd" clip-rule="evenodd" d="M22 1.96875C22 0.881439 21.403 0 20.6667 0H19.3333C18.597 0 18 0.881439 18 1.96875V19.0312C18 20.1186 18.597 21 19.3333 21H20.6667C21.403 21 22 20.1186 22 19.0312V1.96875ZM13.3333 4H14.6667C15.403 4 16 4.91334 16 6.04V18.96C16 20.0867 15.403 21 14.6667 21H13.3333C12.597 21 12 20.0867 12 18.96V12.5V6.04C12 4.91334 12.597 4 13.3333 4ZM8.66667 8H7.33333C6.59695 8 6 8.97005 6 10.1667V18.8333C6 20.03 6.59695 21 7.33333 21H8.66667C9.40305 21 10 20.03 10 18.8333V10.1667C10 8.97005 9.40305 8 8.66667 8ZM4 15C4 13.8954 3.40305 13 2.66667 13H1.33333C0.596954 13 0 13.8954 0 15V19C0 20.1046 0.596954 21 1.33333 21H2.66667C3.40305 21 4 20.1046 4 19V15Z" fill="#FFFDFD"/>
</svg>
