<svg width="28" height="25" viewBox="0 0 28 25" fill="none" xmlns="http://www.w3.org/2000/svg">
<path d="M6.64583 22.5H11.4792C11.4792 23.7375 10.3917 24.75 9.0625 24.75C7.73333 24.75 6.64583 23.7375 6.64583 22.5ZM4.22917 21.375H13.8958V19.125H4.22917V21.375ZM18.125 10.6875C18.125 14.985 14.9108 17.28 13.5696 18H4.55542C3.21417 17.28 0 14.985 0 10.6875C0 6.03 4.06 2.25 9.0625 2.25C14.065 2.25 18.125 6.03 18.125 10.6875ZM15.7083 10.6875C15.7083 7.27875 12.7238 4.5 9.0625 4.5C5.40125 4.5 2.41667 7.27875 2.41667 10.6875C2.41667 13.4663 4.21708 15.0638 5.25625 15.75H12.8687C13.9079 15.0638 15.7083 13.4663 15.7083 10.6875V10.6875ZM24.0096 8.29125L22.3542 9L24.0096 9.70875L24.7708 11.25L25.5321 9.70875L27.1875 9L25.5321 8.29125L24.7708 6.75L24.0096 8.29125ZM21.1458 6.75L22.2817 4.4325L24.7708 3.375L22.2817 2.3175L21.1458 0L20.01 2.3175L17.5208 3.375L20.01 4.4325L21.1458 6.75Z" fill="white"/>
</svg>
