<svg width="25" height="25" viewBox="0 0 25 25" fill="none" xmlns="http://www.w3.org/2000/svg">
<path d="M1.5625 23.2143C1.5625 24.202 2.26074 25 3.125 25H10.9375V16.0714H1.5625V23.2143ZM14.0625 25H21.875C22.7393 25 23.4375 24.202 23.4375 23.2143V16.0714H14.0625V25ZM23.4375 7.14286H21.3818C21.6846 6.46763 21.875 5.71987 21.875 4.91071C21.875 2.20424 19.9463 0 17.5781 0C15.5469 0 14.2334 1.18862 12.5488 3.81138C10.8643 1.18862 9.55078 0 7.51953 0C5.15137 0 3.22266 2.20424 3.22266 4.91071C3.22266 5.71987 3.4082 6.46763 3.71582 7.14286H1.5625C0.698242 7.14286 0 7.94085 0 8.92857V13.3929C0 13.8839 0.351562 14.2857 0.78125 14.2857H24.2188C24.6484 14.2857 25 13.8839 25 13.3929V8.92857C25 7.94085 24.3018 7.14286 23.4375 7.14286ZM7.51465 7.14286C6.43555 7.14286 5.56152 6.14397 5.56152 4.91071C5.56152 3.67746 6.43555 2.67857 7.51465 2.67857C8.48633 2.67857 9.2041 2.86272 11.7188 7.14286H7.51465ZM17.5781 7.14286H13.374C15.8838 2.87388 16.582 2.67857 17.5781 2.67857C18.6572 2.67857 19.5312 3.67746 19.5312 4.91071C19.5312 6.14397 18.6572 7.14286 17.5781 7.14286Z" fill="#F5F5F5"/>
</svg>
